<mxfile host="Electron" modified="2024-03-19T15:50:57.392Z" agent="Mozilla/5.0 (Windows NT 10.0; Win64; x64) AppleWebKit/537.36 (KHTML, like Gecko) draw.io/24.0.4 Chrome/120.0.6099.109 Electron/28.1.0 Safari/537.36" etag="St2zgyqVylLN1XpFDkCK" version="24.0.4" type="device">
  <diagram name="Page-1" id="lv2rsMFJnrSux_ri7Pkg">
    <mxGraphModel dx="1674" dy="844" grid="1" gridSize="10" guides="1" tooltips="1" connect="1" arrows="1" fold="1" page="1" pageScale="1" pageWidth="827" pageHeight="1169" math="0" shadow="0">
      <root>
        <mxCell id="0" />
        <mxCell id="1" parent="0" />
        <mxCell id="sadCyE2UtUd-jNvtVL2--14" value="" style="whiteSpace=wrap;html=1;aspect=fixed;" parent="1" vertex="1">
          <mxGeometry x="380" y="38" width="992" height="992" as="geometry" />
        </mxCell>
        <mxCell id="sadCyE2UtUd-jNvtVL2--6" value="Actor" style="shape=umlActor;verticalLabelPosition=bottom;verticalAlign=top;html=1;outlineConnect=0;" parent="1" vertex="1">
          <mxGeometry x="140" y="385" width="30" height="60" as="geometry" />
        </mxCell>
        <mxCell id="sadCyE2UtUd-jNvtVL2--19" value="View index webpage performance" style="ellipse;whiteSpace=wrap;html=1;" parent="1" vertex="1">
          <mxGeometry x="771" y="350" width="210" height="130" as="geometry" />
        </mxCell>
        <mxCell id="sadCyE2UtUd-jNvtVL2--20" value="Identify pages needing Optimization" style="ellipse;whiteSpace=wrap;html=1;" parent="1" vertex="1">
          <mxGeometry x="1192" y="325" width="140" height="70" as="geometry" />
        </mxCell>
        <mxCell id="sadCyE2UtUd-jNvtVL2--23" value="View predicted web traffic" style="ellipse;whiteSpace=wrap;html=1;" parent="1" vertex="1">
          <mxGeometry x="1192" y="465" width="140" height="70" as="geometry" />
        </mxCell>
        <mxCell id="sadCyE2UtUd-jNvtVL2--24" value="Export data" style="ellipse;whiteSpace=wrap;html=1;" parent="1" vertex="1">
          <mxGeometry x="806" y="655" width="140" height="70" as="geometry" />
        </mxCell>
        <mxCell id="sadCyE2UtUd-jNvtVL2--26" value="View real web traffic data" style="ellipse;whiteSpace=wrap;html=1;" parent="1" vertex="1">
          <mxGeometry x="681" y="85" width="140" height="70" as="geometry" />
        </mxCell>
        <mxCell id="sadCyE2UtUd-jNvtVL2--28" value="&amp;lt;&amp;lt;extend&amp;gt;&amp;gt;" style="edgeStyle=none;html=1;startArrow=open;endArrow=none;startSize=12;verticalAlign=bottom;dashed=1;labelBackgroundColor=none;rounded=0;entryX=0;entryY=0.5;entryDx=0;entryDy=0;" parent="1" source="sadCyE2UtUd-jNvtVL2--19" target="sadCyE2UtUd-jNvtVL2--20" edge="1">
          <mxGeometry width="160" relative="1" as="geometry">
            <mxPoint x="691" y="-7" as="sourcePoint" />
            <mxPoint x="531" y="-7" as="targetPoint" />
            <Array as="points">
              <mxPoint x="1131" y="365" />
            </Array>
          </mxGeometry>
        </mxCell>
        <mxCell id="sadCyE2UtUd-jNvtVL2--29" value="&amp;lt;&amp;lt;include&amp;gt;&amp;gt;" style="edgeStyle=none;html=1;endArrow=open;verticalAlign=bottom;dashed=1;labelBackgroundColor=none;rounded=0;" parent="1" source="sadCyE2UtUd-jNvtVL2--19" target="sadCyE2UtUd-jNvtVL2--26" edge="1">
          <mxGeometry x="-0.0141" y="-26" width="160" relative="1" as="geometry">
            <mxPoint x="701" y="3" as="sourcePoint" />
            <mxPoint x="861" y="3" as="targetPoint" />
            <mxPoint as="offset" />
          </mxGeometry>
        </mxCell>
        <mxCell id="sadCyE2UtUd-jNvtVL2--30" value="View search volume &amp;amp; search ranking data" style="ellipse;whiteSpace=wrap;html=1;" parent="1" vertex="1">
          <mxGeometry x="911" y="85" width="140" height="70" as="geometry" />
        </mxCell>
        <mxCell id="sadCyE2UtUd-jNvtVL2--31" value="&amp;lt;&amp;lt;include&amp;gt;&amp;gt;" style="edgeStyle=none;html=1;endArrow=open;verticalAlign=bottom;dashed=1;labelBackgroundColor=none;rounded=0;entryX=0.5;entryY=1;entryDx=0;entryDy=0;" parent="1" edge="1">
          <mxGeometry x="0.0113" y="22" width="160" relative="1" as="geometry">
            <mxPoint x="901.4662406288112" y="352.94073749056224" as="sourcePoint" />
            <mxPoint x="981" y="156" as="targetPoint" />
            <mxPoint as="offset" />
          </mxGeometry>
        </mxCell>
        <mxCell id="sadCyE2UtUd-jNvtVL2--32" value="&amp;lt;&amp;lt;extend&amp;gt;&amp;gt;" style="edgeStyle=none;html=1;startArrow=open;endArrow=none;startSize=12;verticalAlign=bottom;dashed=1;labelBackgroundColor=none;rounded=0;exitX=0.5;exitY=1;exitDx=0;exitDy=0;" parent="1" source="sadCyE2UtUd-jNvtVL2--19" target="sadCyE2UtUd-jNvtVL2--24" edge="1">
          <mxGeometry x="-0.0286" y="-35" width="160" relative="1" as="geometry">
            <mxPoint x="631" y="353" as="sourcePoint" />
            <mxPoint x="471" y="353" as="targetPoint" />
            <Array as="points" />
            <mxPoint as="offset" />
          </mxGeometry>
        </mxCell>
        <mxCell id="sadCyE2UtUd-jNvtVL2--33" value="&amp;lt;&amp;lt;extend&amp;gt;&amp;gt;" style="edgeStyle=none;html=1;startArrow=open;endArrow=none;startSize=12;verticalAlign=bottom;dashed=1;labelBackgroundColor=none;rounded=0;entryX=0;entryY=0.5;entryDx=0;entryDy=0;exitX=0.952;exitY=0.692;exitDx=0;exitDy=0;exitPerimeter=0;" parent="1" source="sadCyE2UtUd-jNvtVL2--19" target="sadCyE2UtUd-jNvtVL2--23" edge="1">
          <mxGeometry width="160" relative="1" as="geometry">
            <mxPoint x="951" y="460" as="sourcePoint" />
            <mxPoint x="521" y="463" as="targetPoint" />
            <Array as="points" />
          </mxGeometry>
        </mxCell>
        <mxCell id="sadCyE2UtUd-jNvtVL2--34" value="View all webpages performance" style="ellipse;whiteSpace=wrap;html=1;" parent="1" vertex="1">
          <mxGeometry x="420" y="380" width="140" height="70" as="geometry" />
        </mxCell>
        <mxCell id="sadCyE2UtUd-jNvtVL2--35" value="&amp;lt;&amp;lt;extend&amp;gt;&amp;gt;" style="edgeStyle=none;html=1;startArrow=open;endArrow=none;startSize=12;verticalAlign=bottom;dashed=1;labelBackgroundColor=none;rounded=0;exitX=1;exitY=0.5;exitDx=0;exitDy=0;" parent="1" source="sadCyE2UtUd-jNvtVL2--34" target="sadCyE2UtUd-jNvtVL2--19" edge="1">
          <mxGeometry width="160" relative="1" as="geometry">
            <mxPoint x="474" y="457.87" as="sourcePoint" />
            <mxPoint x="414" y="410.0048314606744" as="targetPoint" />
          </mxGeometry>
        </mxCell>
        <mxCell id="sadCyE2UtUd-jNvtVL2--40" value="" style="edgeStyle=none;html=1;endArrow=none;verticalAlign=bottom;rounded=0;exitX=0.5;exitY=0.5;exitDx=0;exitDy=0;exitPerimeter=0;" parent="1" source="sadCyE2UtUd-jNvtVL2--6" edge="1">
          <mxGeometry width="160" relative="1" as="geometry">
            <mxPoint x="260" y="414.5" as="sourcePoint" />
            <mxPoint x="420" y="414.5" as="targetPoint" />
            <Array as="points" />
          </mxGeometry>
        </mxCell>
        <mxCell id="sadCyE2UtUd-jNvtVL2--44" value="Analytics-Driven SEO &amp;amp; SEA Optimization" style="text;html=1;align=center;verticalAlign=middle;whiteSpace=wrap;rounded=0;" parent="1" vertex="1">
          <mxGeometry x="742.5" y="38" width="273" height="30" as="geometry" />
        </mxCell>
        <mxCell id="4mq4u_k6hWVWnEc5-0Mp-1" value="&amp;lt;&amp;lt;extend&amp;gt;&amp;gt;" style="edgeStyle=none;html=1;startArrow=open;endArrow=none;startSize=12;verticalAlign=bottom;dashed=1;labelBackgroundColor=none;rounded=0;" edge="1" parent="1" source="sadCyE2UtUd-jNvtVL2--19" target="4mq4u_k6hWVWnEc5-0Mp-2">
          <mxGeometry x="-0.1556" y="21" width="160" relative="1" as="geometry">
            <mxPoint x="938" y="472" as="sourcePoint" />
            <mxPoint x="910" y="430" as="targetPoint" />
            <mxPoint as="offset" />
          </mxGeometry>
        </mxCell>
        <mxCell id="4mq4u_k6hWVWnEc5-0Mp-2" value="View all URLs of this page" style="ellipse;whiteSpace=wrap;html=1;" vertex="1" parent="1">
          <mxGeometry x="1015.5" y="570" width="140" height="70" as="geometry" />
        </mxCell>
      </root>
    </mxGraphModel>
  </diagram>
</mxfile>
